<svg width="150px" height="150px" viewBox="-24 0 512 512.00001" xmlns="http://www.w3.org/2000/svg"><path d="m287.003906 395.148438v62.101562c0 30.191406-24.558594 54.75-54.75 54.75h-.1875c-30.191406 0-54.75-24.558594-54.75-54.75v-62.101562zm0 0" fill="#ff415b"/><path d="m232.15625 395.148438h54.847656v62.101562c0 30.191406-24.558594 54.75-54.75 54.75h-.097656zm0 0" fill="#e30058"/><path d="m428.375 417.988281c-4.640625 4.621094-10.910156 7.160157-17.671875 7.160157h-357.496094c-10.121093 0-19.050781-6.117188-22.75-15.589844-2.71875-6.96875-1.980469-15.058594 1.96875-21.636719l32.199219-53.613281c8.472656-14.109375 14.441406-29.5 17.710938-45.488282 1.960937-9.519531 2.960937-19.261718 2.960937-29.070312v-57.179688c0-56.511718 32.109375-101.039062 90.410156-125.371093 2.289063-.949219 3.769531-3.148438 3.769531-5.597657v-18.972656c0-14.269531 5.640626-27.628906 15.871094-37.617187 9.9375-9.722657 22.957032-15.0234378 36.808594-15.011719.417969 0 .828125 0 1.25.0117188 28.347656.6679692 51.417969 24.5898432 51.417969 53.3281252v18.261718c0 2.449219 1.480469 4.648438 3.78125 5.597657 58.300781 24.332031 90.410156 68.859375 90.410156 125.371093v57.179688c0 9.800781 1 19.539062 2.949219 29.070312 3.28125 15.988282 9.25 31.390626 17.730468 45.507813l32.359376 53.882813c5.761718 9.628906 4.25 21.878906-3.679688 29.777343zm0 0" fill="#ffda00"/><path d="m428.375 417.988281c-4.640625 4.621094-10.910156 7.160157-17.671875 7.160157h-178.546875v-425.148438c.417969 0 .828125 0 1.25.0117188 28.347656.6679692 51.417969 24.5898432 51.417969 53.3281252v18.261718c0 2.449219 1.480469 4.648438 3.78125 5.597657 58.300781 24.332031 90.410156 68.859375 90.410156 125.371093v57.179688c0 9.800781 1 19.539062 2.949219 29.070312 3.28125 15.988282 9.25 31.390626 17.730468 45.507813l32.359376 53.882813c5.761718 9.628906 4.25 21.878906-3.679688 29.777343zm0 0" fill="#ffbc00"/><path d="m381.964844 288.820312h-299.628906c1.960937-9.519531 2.960937-19.261718 2.960937-29.070312v-57.179688h293.71875v57.179688c0 9.800781 1 19.539062 2.949219 29.070312zm0 0" fill="#ff9700"/><path d="m108.011719 13.074219c-29.074219 18.253906-54.226563 43.175781-72.742188 72.066406-19.226562 30-31.058593 63.136719-35.167969 98.492187-.957031 8.226563 4.9375 15.675782 13.167969 16.628907.589844.070312 1.171875.101562 1.75.101562 7.511719 0 13.992188-5.628906 14.882813-13.265625 3.578125-30.789062 13.882812-59.644531 30.625-85.769531 16.144531-25.195313 38.082031-46.929687 63.4375-62.847656 7.015625-4.402344 9.132812-13.664063 4.726562-20.679688-4.402344-7.015625-13.664062-9.132812-20.679687-4.726562zm0 0" fill="#ff9700"/><g fill="#ff6c4a"><path d="m464.945312 190.605469c-5.925781-68.910157-41.976562-131.269531-98.914062-171.097657-6.785156-4.746093-16.140625-3.09375-20.886719 3.695313-4.75 6.789063-3.09375 16.140625 3.691407 20.890625 49.632812 34.714844 81.058593 89.054688 86.21875 149.082031.671874 7.816407 7.222656 13.714844 14.925781 13.714844.429687 0 .867187-.019531 1.304687-.054687 8.253906-.710938 14.367188-7.976563 13.660156-16.230469zm0 0"/><path d="m381.964844 288.820312h-149.808594v-86.25h146.859375v57.179688c0 9.800781 1 19.539062 2.949219 29.070312zm0 0"/></g></svg>
